<svg xmlns:xlink="http://www.w3.org/1999/xlink" class="cnn" xmlns="http://www.w3.org/2000/svg" width="73" height="35" preserveAspectRatio="xMidYMid meet" viewBox="0 0 73 35" fill="none" xmlns:v="https://vecta.io/nano"><path d="M22.548 10.383h-5.614a7.22 7.22 0 0 0-7.219 7.219 7.22 7.22 0 0 0 7.219 7.219h6.28a.94.94 0 0 0 .939-.939V7.31c.002-1.444.48-2.847 1.36-3.99s2.115-1.965 3.51-2.335 2.874-.27 4.207.287 2.444 1.537 3.16 2.8l7 12.264V7.31c.002-1.444.48-2.847 1.36-3.99s2.115-1.965 3.51-2.335 2.874-.27 4.207.287 2.443 1.537 3.16 2.8l7 12.264V.758h4l.802.802.802-.802h4v27.134c-.002 1.444-.48 2.847-1.36 3.99s-2.115 1.965-3.51 2.335-2.874.27-4.207-.287-2.443-1.537-3.16-2.8l-7-12.264v9.015c-.002 1.444-.48 2.847-1.36 3.99s-2.115 1.965-3.51 2.335-2.874.27-4.207-.287a6.55 6.55 0 0 1-3.161-2.79l-7-12.264v9.015c0 1.738-.7 3.405-1.92 4.634s-2.896 1.92-4.634 1.92h-10.29c-4.467 0-8.75-1.775-11.9-4.933S.1 22.068.1 17.6s1.775-8.75 4.933-11.9S12.466.758 16.933.758h5.615v4l-.802.802.802.802v4z" fill="#566171"></path>
<path id="cnn-path" d="M22.548 5.57h-5.614A12.03 12.03 0 0 0 4.902 17.601a12.03 12.03 0 0 0 12.031 12.031h10.29a1.74 1.74 0 0 0 1.231-.51 1.74 1.74 0 0 0 .51-1.231V7.31a1.74 1.74 0 0 1 1.292-1.679 1.74 1.74 0 0 1 1.956.812l12.753 22.314a1.74 1.74 0 0 0 1.956.813 1.74 1.74 0 0 0 1.292-1.679V7.31a1.74 1.74 0 0 1 1.292-1.679 1.74 1.74 0 0 1 1.956.812l12.753 22.314a1.74 1.74 0 0 0 1.956.813 1.74 1.74 0 0 0 1.292-1.679V.758" stroke="#0E1012" stroke-width="2.19px" fill="none"></path></svg>